<?xml version="1.0" standalone="no"?><!DOCTYPE svg PUBLIC "-//W3C//DTD SVG 1.1//EN" "http://www.w3.org/Graphics/SVG/1.1/DTD/svg11.dtd"><svg t="1622031945914" class="icon" viewBox="0 0 1024 1024" version="1.1" xmlns="http://www.w3.org/2000/svg" p-id="1727" xmlns:xlink="http://www.w3.org/1999/xlink" width="300" height="300"><defs><style type="text/css"></style></defs><path d="M244.171 393.293l-137.5 443.123a23.826 23.826 0 0 0 22.754 30.887h670.546a23.717 23.717 0 0 0 22.755-16.764l137.5-443.125a23.827 23.827 0 0 0-22.755-30.886H266.926a23.714 23.714 0 0 0-22.755 16.765z" p-id="1728"></path><path d="M193.266 377.5a76.769 76.769 0 0 1 73.66-54.267h575.141l0.359-18.842a70.462 70.462 0 0 0-69.844-70.288l-377.068-2.381a29.062 29.062 0 0 1-5.059-0.34c-0.714-0.511-2.133-1.718-3.3-2.711a147.253 147.253 0 0 0-11.819-9.24l-61.649-42.987a113.226 113.226 0 0 0-65.064-20.443H132.071A71.151 71.151 0 0 0 61 227.073V802.2c0 0.493 0.021 0.974 0.027 1.464z" p-id="1729"></path></svg>