<?xml version="1.0" standalone="no"?><!DOCTYPE svg PUBLIC "-//W3C//DTD SVG 1.1//EN" "http://www.w3.org/Graphics/SVG/1.1/DTD/svg11.dtd"><svg t="1622031936136" class="icon" viewBox="0 0 1024 1024" version="1.1" xmlns="http://www.w3.org/2000/svg" p-id="1451" xmlns:xlink="http://www.w3.org/1999/xlink" width="300" height="300"><defs><style type="text/css"></style></defs><path d="M450.879 456.634a140 140 0 1 1-139.876-144.539A142.328 142.328 0 0 1 450.92 456.634z m0 0a140 140 0 1 1-139.876-144.539A142.328 142.328 0 0 1 450.92 456.634zM668.796 102.26l-283.291 175.7a180.838 180.838 0 0 0-74.542-16.082 55.448 55.448 0 0 0-6.311 0.281l224.873-135.653 0.483 0.723a159.056 159.056 0 0 1 138.832-24.968z m119.854 163a171.361 171.361 0 0 1-59.505 130.388L477.899 546.902a198.938 198.938 0 0 0-6.876-193.029c0-0.24-0.159-0.24-0.24-0.481a140.976 140.976 0 0 0-14.434-20.424 188.337 188.337 0 0 0-38.114-36.267l287.67-178.352a170.471 170.471 0 0 1 82.743 146.912z m82.983 172.161l-283.291 175.5a180.689 180.689 0 0 0-74.58-15.839h-6.313L732.36 461.667l0.484 0.724a156.636 156.636 0 0 1 138.789-24.976z m119.815 162.994a171.353 171.353 0 0 1-59.424 130.387L680.736 882.058a199.421 199.421 0 0 0-6.915-193.27l-0.2-0.242a157.756 157.756 0 0 0-19.538-26.656 189.649 189.649 0 0 0-33.01-30.236l287.673-178.151a170.07 170.07 0 0 1 82.743 146.913zM652.432 791.794a140.037 140.037 0 1 1-139.916-144.54 142.208 142.208 0 0 1 139.917 144.461z m0 0a140.037 140.037 0 1 1-139.916-144.54 142.208 142.208 0 0 1 139.917 144.461z m-341.429 0a140.037 140.037 0 1 1-139.916-144.54 142.169 142.169 0 0 1 139.92 144.383z m0 0a140.037 140.037 0 1 1-139.916-144.54 142.169 142.169 0 0 1 139.92 144.383z" p-id="1452"></path></svg>