<?xml version="1.0" standalone="no"?><!DOCTYPE svg PUBLIC "-//W3C//DTD SVG 1.1//EN" "http://www.w3.org/Graphics/SVG/1.1/DTD/svg11.dtd"><svg t="1622032628749" class="icon" viewBox="0 0 1024 1024" version="1.1" xmlns="http://www.w3.org/2000/svg" p-id="1451" xmlns:xlink="http://www.w3.org/1999/xlink" width="300" height="300"><defs><style type="text/css"></style></defs><path d="M508.54 487.074a9.274 9.274 0 0 0 9.188 0.027l376.5-213.141L517.124 57.235a9.262 9.262 0 0 0-9.244 0L133.752 272.25l374.793 214.824z m-19.229 47.821a9.281 9.281 0 0 0-4.66-8.047l-375.65-215.3v433.354a9.283 9.283 0 0 0 4.653 8.042l375.657 215.9z m-83.236 50.1a9.276 9.276 0 0 1-13.914 8.033l-158.177-91.326a9.273 9.273 0 0 1-4.638-8.032v-28.018a9.275 9.275 0 0 1 13.914-8.033l158.177 91.325a9.277 9.277 0 0 1 4.638 8.034z m134.319-57.427a9.277 9.277 0 0 0-4.7 8.07v433.2l375.655-215.9a9.275 9.275 0 0 0 4.652-8.042V314.87z" p-id="1452"></path></svg>