<?xml version="1.0" standalone="no"?><!DOCTYPE svg PUBLIC "-//W3C//DTD SVG 1.1//EN" "http://www.w3.org/Graphics/SVG/1.1/DTD/svg11.dtd"><svg t="1622030293937" class="icon" viewBox="0 0 1024 1024" version="1.1" xmlns="http://www.w3.org/2000/svg" p-id="1522" width="300" height="300" xmlns:xlink="http://www.w3.org/1999/xlink"><defs><style type="text/css"></style></defs><path d="M712.64 51.47v175.09c0 48.1 40.4 88.51 90.43 88.51H957z" p-id="1523"></path><path d="M381.52 495.93c5.78-5.77 7.7-11.55 7.7-19.24q0-23.08-34.63-23.09h-17.32v50h21.16c9.63 0.03 17.32-1.9 23.09-7.67zM564.31 455.52c-17.32 0-30.78 5.78-40.4 19.24s-17.32 28.87-17.32 48.11S512.36 559.42 522 571c9.62 13.47 23.09 19.24 40.41 19.24s30.78-5.77 40.4-17.32 13.47-28.86 13.47-48.1c0-21.16-3.85-38.48-13.47-50s-23.11-19.3-38.5-19.3zM387.3 544a49.82 49.82 0 0 0-26.94-7.7h-23.09v55.8h25c11.55 0 19.24-1.92 25-7.69s9.62-11.55 9.62-21.17c0.03-7.66-3.82-15.36-9.59-19.24z" p-id="1524"></path><path d="M711.59 51.47h-533a103.46 103.46 0 0 0-103.9 103.9v715.75A103.46 103.46 0 0 0 178.62 975h673.43A103.46 103.46 0 0 0 956 871.12v-556zM196.78 626.23A106.78 106.78 0 0 1 123.69 597l23-27.62c14.35 13.27 33.3 22.2 50.89 22.2 20.85 0 31.95-8.93 31.95-23 0-14.89-12.18-19.49-30-27.07l-26.8-11.37c-20.3-8.39-40.61-24.63-40.61-53.87 0-32.75 28.7-57.93 69.3-57.93 23.28 0 46.56 9.2 62.81 25.72l-20.31 25.17c-12.72-10.55-26-16.51-42.5-16.51-17.59 0-29 7.85-29 21.11 0 14.35 14.35 19.5 31.4 26.26l26.26 11.1c24.36 10 40.33 25.45 40.33 54.41 0 32.75-27.34 60.63-73.63 60.63z m227.07-18.7c-13.46 11.54-30.78 17.31-53.87 17.31H293v-204h73.11c23.09 0 40.41 3.85 51.95 13.47Q435.41 445.9 435.4 469q0 17.33-11.55 28.86T395 515.17a71.3 71.3 0 0 1 34.64 15.39c9.62 9.62 13.46 19.24 13.46 32.71-0.01 19.24-5.78 32.73-19.25 44.26z m211.65-9.62c-19.24 19.24-42.33 28.86-73.11 28.86-28.86 0-53.88-9.62-71.19-28.86-21.17-17.32-30.79-42.33-30.79-71.2 0-32.7 9.62-57.72 28.86-78.88 19.24-19.24 44.26-30.79 75-30.79 28.86 0 53.88 9.62 71.19 28.86s26.94 44.26 26.94 75-9.58 57.76-26.9 77.01z m282.84 26.93h-40.4V501.7a357.82 357.82 0 0 1 1.92-42.33h-1.92c-1.93 13.47-3.85 21.17-5.78 26.94l-50 140.46H787.5l-52-138.54c-1.92-3.85-3.84-11.54-5.77-26.93h-1.92c1.92 17.31 1.92 34.63 1.92 51.95v115.44h-40.4v-207.8h63.49L797.12 544c3.85 9.62 5.78 19.24 7.7 28.86 1.93-11.54 5.77-21.16 7.7-28.86l44.25-123.14h61.57z" p-id="1525"></path><path d="M708.45 49v175.07c0 48.1 40.41 88.5 90.43 88.5h153.93z" p-id="1526"></path></svg>